<?xml version="1.0" encoding="UTF-8"?><svg xmlns="http://www.w3.org/2000/svg" xmlns:xlink="http://www.w3.org/1999/xlink" height="318.5" preserveAspectRatio="xMidYMid meet" version="1.0" viewBox="1.0 0.7 314.1 318.5" width="314.1" zoomAndPan="magnify"><g><g id="change1_1"><path d="M 225.5 68.246094 C 225.5 105.523438 195.277344 135.746094 158 135.746094 C 120.722656 135.746094 90.5 105.523438 90.5 68.246094 C 90.5 30.964844 120.722656 0.746094 158 0.746094 C 195.277344 0.746094 225.5 30.964844 225.5 68.246094 Z M 225.5 68.246094" fill="#6fe3ff"/></g><g id="change2_1"><path d="M 222.933594 207.363281 C 227.789062 211.625 230.996094 217.445312 232.011719 223.824219 L 238.863281 220.210938 L 280.09375 197.964844 L 285.042969 195.296875 C 295.625 189.585938 308.824219 193.199219 315.027344 203.5 L 217.859375 270.210938 C 204.761719 276.699219 189.921875 278.792969 175.542969 276.191406 L 119.375 265.847656 C 114.207031 264.546875 108.738281 265.273438 104.089844 267.871094 L 73.671875 287.101562 L 52.421875 217.398438 L 52.601562 217.34375 C 59.15625 216.132812 65.253906 213.152344 70.234375 208.71875 L 79.542969 200.433594 C 98.152344 186.421875 123.035156 183.992188 144.003906 194.140625 L 147.859375 196 C 153.890625 198.917969 160.503906 200.433594 167.203125 200.433594 L 204.574219 200.433594 C 211.335938 200.425781 217.867188 202.890625 222.933594 207.363281 Z M 222.933594 207.363281" fill="#e48e66"/></g><g id="change3_1"><path d="M 280.0625 197.914062 L 280.09375 197.964844 L 238.863281 220.210938 L 232.011719 223.824219 C 230.996094 217.445312 227.789062 211.625 222.933594 207.363281 L 249.433594 193.082031 L 256.175781 189.453125 C 264.507812 185.230469 275.441406 189.789062 280.0625 197.914062 Z M 280.0625 197.914062" fill="#d38363"/></g><g id="change2_2"><path d="M 249.101562 192.476562 L 249.433594 193.082031 L 222.933594 207.363281 C 217.867188 202.890625 211.335938 200.425781 204.574219 200.433594 L 196.289062 200.433594 L 218.328125 188.449219 C 228.316406 182.664062 240.941406 184.316406 249.101562 192.476562 Z M 249.101562 192.476562" fill="#e48e66"/></g><g id="change3_2"><path d="M 232.363281 232.71875 C 232.296875 232.71875 232.226562 232.71875 232.160156 232.714844 L 200.285156 231.277344 C 190.964844 230.855469 181.625 231.28125 172.382812 232.558594 C 166.484375 233.324219 165.265625 224.503906 171.152344 223.640625 C 180.9375 222.292969 190.824219 221.839844 200.691406 222.285156 L 227.375 223.488281 C 225.132812 212.683594 215.613281 204.933594 204.574219 204.933594 L 167.203125 204.933594 C 159.828125 204.921875 152.546875 203.253906 145.902344 200.050781 L 142.050781 198.191406 C 122.667969 188.753906 99.628906 190.964844 82.394531 203.917969 L 73.226562 212.082031 C 67.632812 217.058594 60.78125 220.410156 53.417969 221.769531 C 50.953125 222.261719 48.5625 220.644531 48.109375 218.171875 C 47.652344 215.703125 49.308594 213.335938 51.789062 212.921875 C 57.535156 211.859375 62.878906 209.242188 67.246094 205.359375 L 76.550781 197.070312 C 76.640625 196.988281 76.738281 196.910156 76.835938 196.835938 C 96.769531 181.753906 123.488281 179.144531 145.964844 190.085938 L 149.816406 191.945312 C 155.238281 194.5625 161.179688 195.921875 167.203125 195.933594 L 204.574219 195.933594 C 222.402344 195.941406 236.851562 210.390625 236.863281 228.21875 C 236.863281 230.703125 234.847656 232.71875 232.363281 232.71875 Z M 232.363281 232.71875" fill="#d38363"/></g><g id="change4_1"><path d="M 73.671875 287.101562 L 83.472656 319.253906 L 15.972656 319.253906 L 0.972656 196.253906 L 45.972656 196.253906 L 52.421875 217.398438 Z M 73.671875 287.101562" fill="#f8ec7d"/></g><g id="change3_3"><path d="M 55.191406 297.738281 C 55.191406 302.707031 51.160156 306.738281 46.191406 306.738281 C 41.21875 306.738281 37.191406 302.707031 37.191406 297.738281 C 37.191406 292.765625 41.21875 288.738281 46.191406 288.738281 C 51.160156 288.738281 55.191406 292.765625 55.191406 297.738281 Z M 55.191406 297.738281" fill="#d38363"/></g><g id="change5_1"><path d="M 184.25 46 L 173.414062 46 C 172.5625 40.964844 170.300781 36.277344 166.886719 32.476562 L 184.25 32.476562 C 190.25 32.476562 190.25 23.476562 184.25 23.476562 L 131.75 23.476562 C 125.75 23.476562 125.75 32.476562 131.75 32.476562 L 146.773438 32.476562 C 154.988281 32.488281 162.160156 38.046875 164.226562 46 L 131.75 46 C 125.75 46 125.75 55 131.75 55 L 164.230469 55 C 162.175781 62.964844 154.996094 68.527344 146.773438 68.53125 L 131.75 68.53125 C 127.679688 68.53125 125.699219 73.503906 128.660156 76.300781 L 166.203125 111.777344 C 168.011719 113.484375 170.859375 113.402344 172.566406 111.597656 C 174.273438 109.789062 174.191406 106.941406 172.386719 105.234375 L 143.066406 77.53125 L 146.773438 77.53125 C 159.964844 77.53125 171.226562 68.007812 173.417969 55 L 184.25 55 C 190.25 55 190.25 46 184.25 46 Z M 184.25 46" fill="#2561a1"/></g></g></svg>